<svg width="24" height="24" viewBox="0 0 24 24" fill="none" xmlns="http://www.w3.org/2000/svg">
  <path d="M7.076 21.337H2.47a.641.641 0 0 1-.633-.74L4.944 2.28A.641.641 0 0 1 5.577 1.8h6.362c1.564 0 2.916.181 4.005.535 1.089.354 1.97.88 2.643 1.578.673.698 1.009 1.608 1.009 2.729 0 .934-.211 1.704-.633 2.31s-.989 1.074-1.7 1.413c1.564.425 2.347 1.455 2.347 3.089 0 .989-.233 1.844-.7 2.565-.467.721-1.13 1.318-1.989 1.792-.859.474-1.883.711-3.074.711H8.985l-.66 4.555a.641.641 0 0 1-.633.555l-.616.042zm2.139-14.24l-.931 6.425h4.862c.956 0 1.689-.211 2.199-.633.51-.422.765-.956.765-1.603 0-.647-.255-1.136-.765-1.467-.51-.331-1.243-.497-2.199-.497H9.215v-.225zm1.633-3.532l-.699 4.813h4.862c.956 0 1.689-.211 2.199-.633.51-.422.765-.956.765-1.603 0-.647-.255-1.136-.765-1.467-.51-.331-1.243-.497-2.199-.497H10.848v-.613z" fill="currentColor"/>
</svg>