<svg width="24" height="24" viewBox="0 0 24 24" fill="none" xmlns="http://www.w3.org/2000/svg">
  <path d="M22.54 6.42C22.4212 5.94541 22.1793 5.51057 21.8387 5.15941C21.4981 4.80824 21.0708 4.55318 20.6 4.42C18.88 4 12 4 12 4C12 4 5.12 4 3.4 4.46C2.92921 4.59318 2.50191 4.84824 2.16131 5.19941C1.82071 5.55057 1.57879 5.98541 1.46 6.46C1.14 8.20556 0.991387 9.97631 1.01 11.75C0.988721 13.537 1.13742 15.3213 1.46 17.08C1.59 17.5398 1.83 17.9581 2.17 18.2945C2.51 18.6308 2.93 18.8738 3.4 19C5.12 19.46 12 19.46 12 19.46C12 19.46 18.88 19.46 20.6 19C21.0708 18.8668 21.4981 18.6118 21.8387 18.2606C22.1793 17.9094 22.4212 17.4746 22.54 17C22.8524 15.3213 22.9913 13.537 22.96 11.75C22.9813 9.97631 22.8326 8.20556 22.54 6.42V6.42Z" stroke="currentColor" stroke-width="2" stroke-linecap="round" stroke-linejoin="round"/>
  <polygon points="9.75,15.02 15.5,11.75 9.75,8.48 9.75,15.02" stroke="currentColor" stroke-width="2" stroke-linecap="round" stroke-linejoin="round"/>
</svg>